<?xml version="1.0" encoding="utf-8"?>
<!-- Generator: Adobe Illustrator 23.0.1, SVG Export Plug-In . SVG Version: 6.00 Build 0)  -->
<svg version="1.1" id="图层_1" xmlns="http://www.w3.org/2000/svg" xmlns:xlink="http://www.w3.org/1999/xlink" x="0px" y="0px"
	 viewBox="0 0 200 200" style="enable-background:new 0 0 200 200;" xml:space="preserve">
<style type="text/css">
	.st0{fill:#95C3E8;}
</style>
<path class="st0" d="M187.6,21.2h-76.5l-5.7,14.6h70.4c4.9,0,8.8,3.9,8.8,8.8V100l-27.1-27.1c-2.8-2.8-7.4-2.8-10.2,0L124,96.1
	l14.4,8.4L108,164.2l-7.5,14.6h87.2c6.5,0,11.7-5.2,11.7-11.7V32.8C199.3,26.4,194.1,21.2,187.6,21.2z M107.5,112.7l-20.8,20.8
	l-28.4-28.4c-2.3-2.3-6-2.3-8.3,0l-34.7,34.6V44.4c0-4.9,4-8.8,8.8-8.8h57L86.7,21H12.4C5.9,21,0.7,26.3,0.7,32.8v134.4
	c0,6.5,5.2,11.7,11.7,11.7h62.7l7.5-14.6l26.1-50.9L107.5,112.7L107.5,112.7z"/>
<path class="st0" d="M77.6,178.8h-5.2l33.1-64.6L58.6,86.8l25.7-65.6h4.9L64.3,84.9l47.2,27.6L77.6,178.8z"/>
<path class="st0" d="M102.6,178.8h-5.2l38.2-73.4L86.9,77l21.8-55.9h4.7L92.5,75l49.2,28.8L102.6,178.8z"/>
</svg>
